<svg width="25" height="19" viewBox="0 0 25 19" fill="none" xmlns="http://www.w3.org/2000/svg">
    <path d="M6 3.40625C4.81332 3.40625 3.65328 3.75814 2.66658 4.41743C1.67989 5.07672 0.910851 6.01379 0.456725 7.11015C0.00259969 8.20651 -0.11622 9.41291 0.115291 10.5768C0.346802 11.7407 0.918247 12.8098 1.75736 13.6489C2.59648 14.488 3.66558 15.0594 4.82946 15.291C5.99335 15.5225 7.19975 15.4037 8.2961 14.9495C9.39246 14.4954 10.3295 13.7264 10.9888 12.7397C11.6481 11.753 12 10.5929 12 9.40625C11.9954 7.81638 11.3617 6.29296 10.2375 5.16875C9.11329 4.04453 7.58987 3.4109 6 3.40625ZM9 9.78125H6.375V12.4062H5.625V9.78125H3V9.03125H5.625V6.40625H6.375V9.03125H9V9.78125Z" fill="currentColor"/>
    <path fill-rule="evenodd" clip-rule="evenodd" d="M8.875 0H24.125V18.8125H8.875V0ZM9.875 1V17.8125H23.125V1H9.875ZM15.4259 4.0625L12.9375 6.55086L11.6366 5.25L12.3438 4.54289L12.9375 5.13664L14.7188 3.35539L15.4259 4.0625ZM16.5938 4.75H21.1562V5.75H16.5938V4.75ZM15.4259 8.21875L12.9375 10.7071L11.6366 9.40625L12.3438 8.69914L12.9375 9.29289L14.7188 7.51164L15.4259 8.21875ZM16.5938 8.90625H21.1562V9.90625H16.5938V8.90625ZM11.8438 13.0625H14.0312V14.0625H11.8438V13.0625ZM16.5938 13.0625H21.1562V14.0625H16.5938V13.0625Z" fill="currentColor"/>
</svg>
