<svg width="32" height="26" viewBox="0 0 32 26" fill="none" xmlns="http://www.w3.org/2000/svg">
    <path fill-rule="evenodd" clip-rule="evenodd" d="M8.42562 0H23.5744L31.1577 13L23.5744 26H8.42562L0.842285 13L8.42562 0ZM9.57436 2L3.15769 13L9.57436 24H22.4256L28.8423 13L22.4256 2H9.57436ZM16 9C13.7908 9 12 10.7909 12 13C12 15.2091 13.7908 17 16 17C18.2091 17 20 15.2091 20 13C20 10.7909 18.2091 9 16 9ZM9.99999 13C9.99999 9.68629 12.6863 7 16 7C19.3137 7 22 9.68629 22 13C22 16.3137 19.3137 19 16 19C12.6863 19 9.99999 16.3137 9.99999 13Z" fill="currentColor"/>
</svg>
