<svg width="20" height="25" viewBox="0 0 20 25" fill="none" xmlns="http://www.w3.org/2000/svg">
    <path fill-rule="evenodd" clip-rule="evenodd" d="M0 0H19.75V24.4375H0V0ZM1 1V23.4375H18.75V1H1ZM8.23836 5.1875L5.1875 8.23836L3.69914 6.75L4.40625 6.04289L5.1875 6.82414L7.53125 4.48039L8.23836 5.1875ZM10.1562 6.25H15.8438V7.25H10.1562V6.25ZM8.23836 10.6562L5.1875 13.7071L3.69914 12.2188L4.40625 11.5116L5.1875 12.2929L7.53125 9.94914L8.23836 10.6562ZM10.1562 11.7188H15.8438V12.7188H10.1562V11.7188ZM3.90625 17.1875H6.46875V18.1875H3.90625V17.1875ZM10.1562 17.1875H15.8438V18.1875H10.1562V17.1875Z" fill="currentColor"/>
</svg>
