<svg width="21" height="20" viewBox="0 0 21 20" fill="none" xmlns="http://www.w3.org/2000/svg">
    <path fill-rule="evenodd" clip-rule="evenodd" d="M9.92279 19.1001V8.91358H11.1961V19.1001H9.92279Z" fill="currentColor"/>
    <path fill-rule="evenodd" clip-rule="evenodd" d="M7.37611 15.0162L10.5594 18.1995L13.7427 15.0162L14.643 15.9166L10.5594 20.0002L6.47574 15.9166L7.37611 15.0162Z" fill="currentColor"/>
    <path fill-rule="evenodd" clip-rule="evenodd" d="M3.96382 4.60883C4.9711 1.93118 7.53471 0 10.5594 0C14.0297 0 16.9265 2.54198 17.4932 5.81702C19.343 6.24007 20.7459 7.85861 20.7459 9.86815C20.7459 12.055 19.0846 13.7788 16.9938 14.0028L16.96 14.0064H12.4694V12.7331H16.8903C18.3491 12.5611 19.4726 11.3629 19.4726 9.86815C19.4726 8.36237 18.3325 7.15755 16.8581 6.99958L16.3439 6.94448L16.2924 6.42989C16.0064 3.56951 13.5403 1.27331 10.5594 1.27331C7.98653 1.27331 5.80267 2.98937 5.05439 5.34933L4.9366 5.72082L4.55218 5.78489C2.94281 6.05312 1.64623 7.51185 1.64623 9.23149C1.64623 11.0517 3.03029 12.5584 4.85865 12.7331H8.64943V14.0064H4.80147L4.77355 14.0039C2.28593 13.7844 0.372925 11.7317 0.372925 9.23149C0.372925 7.01284 1.93453 5.12769 3.96382 4.60883Z" fill="currentColor"/>
</svg>
