<svg width="25" height="23" viewBox="0 0 25 23" fill="none" xmlns="http://www.w3.org/2000/svg">
    <path fill-rule="evenodd" clip-rule="evenodd" d="M12.5 11.7188C9.91117 11.7188 7.8125 13.8174 7.8125 16.4062C7.8125 18.9951 9.91117 21.0938 12.5 21.0938C15.0888 21.0938 17.1875 18.9951 17.1875 16.4062C17.1875 13.8174 15.0888 11.7188 12.5 11.7188ZM6.25 16.4062C6.25 12.9545 9.04822 10.1562 12.5 10.1562C15.9518 10.1562 18.75 12.9545 18.75 16.4062C18.75 19.858 15.9518 22.6562 12.5 22.6562C9.04822 22.6562 6.25 19.858 6.25 16.4062Z" fill="currentColor"/>
    <path fill-rule="evenodd" clip-rule="evenodd" d="M13.2812 12.5V15.625H16.4062V17.1875H11.7188V12.5H13.2812Z" fill="currentColor"/>
    <path fill-rule="evenodd" clip-rule="evenodd" d="M0 0H9.81734L12.1611 3.90625H25V19.5312C25 20.3601 24.6708 21.1549 24.0847 21.741C23.4987 22.327 22.7038 22.6562 21.875 22.6562H17.9688V21.0938H21.875C22.2894 21.0938 22.6868 20.9291 22.9799 20.6361C23.2729 20.3431 23.4375 19.9457 23.4375 19.5312V5.46875H11.2764L8.93266 1.5625H1.5625V19.5312C1.5625 19.9457 1.72712 20.3431 2.02015 20.6361C2.31317 20.9291 2.7106 21.0938 3.125 21.0938H7.03125V22.6562H3.125C2.2962 22.6562 1.50134 22.327 0.915291 21.741C0.32924 21.1549 0 20.3601 0 19.5312V0Z" fill="currentColor"/>
</svg>
