<svg width="12" height="12" viewBox="0 0 12 12" fill="none" xmlns="http://www.w3.org/2000/svg">
    <path fill-rule="evenodd" clip-rule="evenodd" d="M1.12087 5.45455H3.30005C3.42234 3.94735 3.92678 2.50059 4.75948 1.249C2.81935 1.75417 1.34619 3.41631 1.12087 5.45455ZM6 1.39134C5.08927 2.56469 4.53207 3.97463 4.39505 5.45455H7.60495C7.46793 3.97463 6.91073 2.56469 6 1.39134ZM7.60495 6.54545C7.46793 8.02537 6.91073 9.43531 6 10.6087C5.08927 9.43531 4.53207 8.02537 4.39505 6.54545H7.60495ZM3.30005 6.54545H1.12087C1.34619 8.58369 2.81935 10.2458 4.75948 10.751C3.92678 9.49941 3.42234 8.05265 3.30005 6.54545ZM7.24052 10.751C8.07322 9.49941 8.57766 8.05265 8.69995 6.54545H10.8791C10.6538 8.58369 9.18065 10.2458 7.24052 10.751ZM10.8791 5.45455H8.69995C8.57766 3.94735 8.07322 2.50059 7.24052 1.249C9.18065 1.75417 10.6538 3.41631 10.8791 5.45455ZM0 6C0 2.68629 2.68629 0 6 0C9.31371 0 12 2.68629 12 6C12 9.31371 9.31371 12 6 12C2.68629 12 0 9.31371 0 6Z" fill="currentColor"/>
</svg>
