<svg width="10" height="12" viewBox="0 0 10 12" fill="none" xmlns="http://www.w3.org/2000/svg">
    <path fill-rule="evenodd" clip-rule="evenodd" d="M0.5 0.375H9.5V1.125H0.5V0.375Z" fill="currentColor"/>
    <path fill-rule="evenodd" clip-rule="evenodd" d="M0.5 10.875H9.5V11.625H0.5V10.875Z" fill="currentColor"/>
    <path fill-rule="evenodd" clip-rule="evenodd" d="M8 2.35462V0.75H8.75V2.35462C8.75 2.8466 8.61175 3.32867 8.351 3.74587V3.74587L6.94221 6L8.351 8.25413C8.61175 8.67132 8.75 9.1534 8.75 9.64538V11.25H8V9.64537C8 9.29396 7.90125 8.94962 7.715 8.65162L6.05779 6L7.715 3.34838C7.90124 3.05038 8 2.70604 8 2.35462Z" fill="currentColor"/>
    <path fill-rule="evenodd" clip-rule="evenodd" d="M2 0.75V2.35463C2 2.70604 2.09875 3.05038 2.285 3.34838L3.94221 6L2.285 8.65162C2.09876 8.94962 2 9.29396 2 9.64537V11.25H1.25V9.64538C1.25 9.1534 1.38825 8.67132 1.649 8.25413L3.05779 6L1.649 3.74587V3.74587C1.38826 3.32868 1.25 2.8466 1.25 2.35462V0.75H2Z" fill="currentColor"/>
    <path d="M3.125 9.75V9.64538C3.12462 9.50508 3.1636 9.3675 3.2375 9.24825L4.682 6.9375C4.71563 6.88323 4.76256 6.83845 4.81834 6.8074C4.87412 6.77634 4.93691 6.76004 5.00075 6.76004C5.06459 6.76004 5.12738 6.77634 5.18316 6.8074C5.23894 6.83845 5.28587 6.88323 5.3195 6.9375L6.7625 9.24787C6.83647 9.36723 6.87545 9.50496 6.875 9.64538V9.75H3.125Z" fill="currentColor"/>
</svg>
