<svg width="32" height="30" viewBox="0 0 32 30" fill="none" xmlns="http://www.w3.org/2000/svg">
    <path fill-rule="evenodd" clip-rule="evenodd" d="M6 0H26V2H6V0ZM0 4H32V30H0V4ZM2 6V28H30V6H2ZM8.5 11C7.67157 11 7 11.6716 7 12.5C7 13.3284 7.67157 14 8.5 14C9.32843 14 10 13.3284 10 12.5C10 11.6716 9.32843 11 8.5 11ZM5 12.5C5 10.567 6.567 9 8.5 9C10.433 9 12 10.567 12 12.5C12 14.433 10.433 16 8.5 16C6.567 16 5 14.433 5 12.5ZM20.2034 11.457L28.8217 25H5.4292L20.2034 11.457ZM10.5708 23H25.1783L19.7966 14.543L10.5708 23Z" fill="currentColor"/>
</svg>
