<svg width="28" height="32" viewBox="0 0 28 32" fill="none" xmlns="http://www.w3.org/2000/svg">
    <path fill-rule="evenodd" clip-rule="evenodd" d="M3 2C2.44728 2 2 2.44728 2 3V29C2 29.5527 2.44728 30 3 30H21C21.5527 30 22 29.5527 22 29V10.4142L20 12.4142V24H4V4H19.5858L21.4698 2.11597C21.3298 2.04182 21.1699 2 21 2H3ZM22.9183 0.692041C22.3985 0.25971 21.7299 0 21 0H3C1.34272 0 0 1.34272 0 3V29C0 30.6573 1.34272 32 3 32H21C22.6573 32 24 30.6573 24 29V8.41421L27.0861 5.32811C28.3046 4.10958 28.3046 2.13242 27.0861 0.913893C25.9467 -0.225547 24.1439 -0.299497 22.9183 0.692041ZM17.5858 6H6V22H18V14.4142L13.5858 10L17.5858 6ZM18 11.5858L25.6719 3.91389C26.1094 3.47642 26.1094 2.76558 25.6719 2.32811C25.2344 1.89063 24.5236 1.89063 24.0861 2.32811L16.4142 10L18 11.5858ZM13.4189 14.5811C12.6444 13.8066 11.3876 13.8066 10.6131 14.5811C10.5627 14.6315 10.4309 14.8484 10.3057 15.347C10.1915 15.8023 10.1158 16.3524 10.0683 16.9039C10.0337 17.3059 10.0151 17.6938 10.0056 18.0244C10.3164 18.023 10.6783 18.0132 11.0551 17.9864C11.591 17.9482 12.1283 17.8775 12.5813 17.7594C13.0614 17.6342 13.3177 17.4881 13.4189 17.3869C14.1934 16.6124 14.1934 15.3556 13.4189 14.5811ZM9 19C8.00036 19.0268 8.00035 19.0266 8.00035 19.0265L8.00023 19.0218L7.99997 19.0109L7.99918 18.972C7.99857 18.9387 7.99784 18.8909 7.9973 18.8304C7.99622 18.7094 7.99588 18.5372 7.99878 18.3281C8.00456 17.9112 8.02327 17.3404 8.07569 16.7321C8.12767 16.1291 8.21505 15.4612 8.36589 14.8601C8.50588 14.3024 8.74128 13.6245 9.19889 13.1669C10.7544 11.6114 13.2776 11.6114 14.8331 13.1669C16.3886 14.7224 16.3886 17.2456 14.8331 18.8011C14.3518 19.2824 13.6761 19.5408 13.0859 19.6947C12.4685 19.8557 11.7971 19.9386 11.1971 19.9813C10.5921 20.0244 10.0302 20.0285 9.62151 20.0221C9.41631 20.0189 9.24768 20.0131 9.12905 20.0079C9.06969 20.0053 9.02272 20.0029 8.98981 20.0011L8.95115 19.9989L8.94009 19.9982L8.93554 19.9979C8.93536 19.9979 8.93475 19.9979 9 19ZM9 19L8.93554 19.9979L8.02476 19.9384L8.00035 19.0265L9 19ZM10 27C10 25.8954 10.8954 25 12 25C13.1046 25 14 25.8954 14 27C14 28.1046 13.1046 29 12 29C10.8954 29 10 28.1046 10 27Z" fill="currentColor"/>
</svg>
