<svg width="26" height="25" viewBox="0 0 26 25" fill="none" xmlns="http://www.w3.org/2000/svg">
    <path fill-rule="evenodd" clip-rule="evenodd" d="M7.05685 12.9406L10.9936 22.6223C11.1229 22.9423 11.3737 23.1979 11.6912 23.3332C12.0084 23.4683 12.3663 23.4722 12.6864 23.344C13.0059 23.215 13.2613 22.9645 13.3964 22.6474C13.5316 22.3302 13.5354 21.9724 13.407 21.6524V21.6524L10.8291 15.2624L12.2782 14.6778L14.8569 21.0699C15.1397 21.7741 15.1314 22.5618 14.8339 23.26C14.5364 23.9581 13.9739 24.5097 13.2701 24.7935L12.9779 24.0689L13.2687 24.794C12.5645 25.0765 11.7769 25.0681 11.0788 24.7707C10.381 24.4735 9.82954 23.9117 9.54521 23.2086L9.54479 23.2076L5.60937 13.5292L7.05685 12.9406Z" fill="currentColor"/>
    <path fill-rule="evenodd" clip-rule="evenodd" d="M18.5823 3.64783C17.8696 5.07327 17.4062 7.09716 17.4062 9.37537C17.4062 11.6536 17.8696 13.6775 18.5823 15.1029C19.3184 16.5751 20.1907 17.1882 20.922 17.1882C21.6532 17.1882 22.5256 16.5751 23.2616 15.1029C23.9744 13.6775 24.4377 11.6536 24.4377 9.37537C24.4377 7.09716 23.9744 5.07327 23.2616 3.64783C22.5256 2.17566 21.6532 1.56256 20.922 1.56256C20.1907 1.56256 19.3184 2.17566 18.5823 3.64783ZM17.1847 2.94903C18.0038 1.31075 19.28 0 20.922 0C22.5639 0 23.8401 1.31075 24.6592 2.94903C25.5017 4.63404 26.0003 6.90718 26.0003 9.37537C26.0003 11.8435 25.5017 14.1167 24.6592 15.8017C23.8401 17.44 22.5639 18.7507 20.922 18.7507C19.28 18.7507 18.0038 17.44 17.1847 15.8017C16.3422 14.1167 15.8436 11.8435 15.8436 9.37537C15.8436 6.90718 16.3422 4.63404 17.1847 2.94903Z" fill="currentColor"/>
    <path fill-rule="evenodd" clip-rule="evenodd" d="M18.9688 6.25024H19.7501C20.5789 6.25024 21.3738 6.5795 21.9598 7.16557C22.5459 7.75164 22.8752 8.54653 22.8752 9.37537C22.8752 10.2042 22.5459 10.9991 21.9598 11.5852C21.3738 12.1712 20.5789 12.5005 19.7501 12.5005H18.9688V10.9379H19.7501C20.1645 10.9379 20.5619 10.7733 20.8549 10.4803C21.148 10.1872 21.3126 9.78978 21.3126 9.37537C21.3126 8.96095 21.148 8.5635 20.8549 8.27047C20.5619 7.97743 20.1645 7.8128 19.7501 7.8128H18.9688V6.25024Z" fill="currentColor"/>
    <path fill-rule="evenodd" clip-rule="evenodd" d="M3.90576 5.49959L19.8254 0.207861L20.3183 1.69065L4.3413 7.00144L4.31111 7.00888C3.79486 7.13596 3.3385 7.43778 3.01951 7.86311C2.70052 8.28843 2.53854 8.81105 2.56109 9.34223L2.5625 9.37537L2.56109 9.4085C2.53854 9.93968 2.70052 10.4623 3.01951 10.8876C3.3385 11.3129 3.79486 11.6148 4.31111 11.7419L4.3413 11.7493L20.3183 17.0601L19.8254 18.5429L3.90575 13.2511C3.05224 13.0333 2.29837 12.5304 1.76946 11.8252C1.24061 11.12 0.968864 10.2556 0.998676 9.37537C0.968864 8.49512 1.24061 7.6307 1.76946 6.92557C2.29837 6.22036 3.05225 5.7174 3.90576 5.49959Z" fill="currentColor"/>
</svg>
