<svg width="12" height="12" viewBox="0 0 12 12" fill="none" xmlns="http://www.w3.org/2000/svg">
    <path fill-rule="evenodd" clip-rule="evenodd" d="M5.43945 1.62166C3.34537 1.62166 1.64779 3.31925 1.64779 5.41333C1.64779 7.50741 3.34537 9.205 5.43945 9.205C6.46102 9.205 7.38823 8.801 8.07003 8.14405C8.08428 8.12553 8.09988 8.10771 8.11685 8.09074C8.13382 8.07377 8.15163 8.05817 8.17016 8.04392C8.82711 7.36212 9.23112 6.43491 9.23112 5.41333C9.23112 3.31925 7.53353 1.62166 5.43945 1.62166ZM9.24839 8.45625C9.91553 7.62226 10.3145 6.56438 10.3145 5.41333C10.3145 2.72094 8.13184 0.53833 5.43945 0.53833C2.74706 0.53833 0.564453 2.72094 0.564453 5.41333C0.564453 8.10572 2.74706 10.2883 5.43945 10.2883C6.5905 10.2883 7.64837 9.88941 8.48236 9.22228L10.4731 11.213C10.6846 11.4246 11.0276 11.4246 11.2391 11.213C11.4507 11.0015 11.4507 10.6585 11.2391 10.447L9.24839 8.45625Z" fill="currentColor"/>
</svg>
