<svg width="20" height="16" viewBox="0 0 20 16" fill="none" xmlns="http://www.w3.org/2000/svg">
    <path fill-rule="evenodd" clip-rule="evenodd" d="M6.83537 1.74666C5.52369 1.74666 4.46037 2.80999 4.46037 4.12166C4.46037 5.43334 5.52369 6.49666 6.83537 6.49666C8.14704 6.49666 9.21037 5.43334 9.21037 4.12166C9.21037 2.80999 8.14704 1.74666 6.83537 1.74666ZM2.87703 4.12166C2.87703 1.93554 4.64924 0.16333 6.83537 0.16333C9.02149 0.16333 10.7937 1.93554 10.7937 4.12166C10.7937 6.30779 9.02149 8.08 6.83537 8.08C4.64924 8.08 2.87703 6.30779 2.87703 4.12166ZM18.8743 5.1452C19.1835 5.45437 19.1835 5.95562 18.8743 6.26479L15.7077 9.43146C15.5592 9.57992 15.3578 9.66333 15.1479 9.66333C14.9379 9.66333 14.7365 9.57992 14.5881 9.43146L13.0047 7.84812C12.6956 7.53896 12.6956 7.0377 13.0047 6.72854C13.3139 6.41937 13.8152 6.41937 14.1243 6.72854L15.1479 7.75208L17.7547 5.1452C18.0639 4.83604 18.5652 4.83604 18.8743 5.1452ZM1.26557 10.8227C2.0079 10.0804 3.01472 9.66333 4.06453 9.66333H9.6062C10.656 9.66333 11.6628 10.0804 12.4052 10.8227C13.1475 11.565 13.5645 12.5718 13.5645 13.6217V15.205C13.5645 15.6422 13.2101 15.9967 12.7729 15.9967C12.3356 15.9967 11.9812 15.6422 11.9812 15.205V13.6217C11.9812 12.9918 11.731 12.3877 11.2856 11.9423C10.8402 11.4969 10.2361 11.2467 9.6062 11.2467H4.06453C3.43465 11.2467 2.83056 11.4969 2.38516 11.9423C1.93976 12.3877 1.68953 12.9918 1.68953 13.6217V15.205C1.68953 15.6422 1.33509 15.9967 0.897868 15.9967C0.460642 15.9967 0.106201 15.6422 0.106201 15.205V13.6217C0.106201 12.5718 0.523239 11.565 1.26557 10.8227Z" fill="currentColor"/>
</svg>
